<svg width="70" height="70" viewBox="0 0 70 70" fill="none" xmlns="http://www.w3.org/2000/svg">
<mask id="mask0_3_53" style="mask-type:luminance" maskUnits="userSpaceOnUse" x="0" y="0" width="70" height="70">
<path d="M69 69V1.00001H1V69H69Z" fill="white" stroke="white" stroke-width="2"/>
</mask>
<g mask="url(#mask0_3_53)">
<path d="M26.994 27.8559L26.994 27.856L26.9876 27.8518C26.9345 27.8176 26.8705 27.7969 26.7969 27.7969C26.5945 27.7969 26.4297 27.9617 26.4297 28.1641C26.4297 28.2611 26.4662 28.3472 26.5266 28.4123L26.5278 28.4136C26.5961 28.4875 26.6898 28.5312 26.7969 28.5312C26.9993 28.5312 27.1641 28.3664 27.1641 28.1641C27.1641 28.0356 27.0988 27.9224 26.994 27.8559Z" fill="black" stroke="#F4F4ED" stroke-width="2"/>
<path d="M35 1.36719V10.3906" stroke="#F4F4ED" stroke-width="2" stroke-linecap="round" stroke-linejoin="round"/>
<path d="M35 59.6094V68.6328" stroke="#F4F4ED" stroke-width="2" stroke-linecap="round" stroke-linejoin="round"/>
<path d="M9.06308 11.7977L14.8641 17.5986" stroke="#F4F4ED" stroke-width="2" stroke-linecap="round" stroke-linejoin="round"/>
<path d="M55.136 53.7688L60.937 59.5698" stroke="#F4F4ED" stroke-width="2" stroke-linecap="round" stroke-linejoin="round"/>
<path d="M60.9369 11.7977L55.1359 17.5986" stroke="#F4F4ED" stroke-width="2" stroke-linecap="round" stroke-linejoin="round"/>
<path d="M14.864 53.7688L9.06305 59.5698" stroke="#F4F4ED" stroke-width="2" stroke-linecap="round" stroke-linejoin="round"/>
<path d="M65.0781 35C65.0781 35 53.1221 52.7734 35 52.7734C16.8779 52.7734 4.92188 35 4.92188 35C4.92188 35 16.8779 17.2266 35 17.2266C53.1221 17.2266 65.0781 35 65.0781 35Z" stroke="#F4F4ED" stroke-width="2" stroke-linecap="round" stroke-linejoin="round"/>
<path d="M31.0912 24.7816C31.1403 24.7625 31.1897 24.7447 31.2389 24.727C31.2934 24.7064 31.3483 24.6873 31.403 24.6682C31.4522 24.6504 31.5014 24.634 31.552 24.6176C31.6162 24.5957 31.6832 24.5738 31.7489 24.5533C31.8336 24.5273 31.9184 24.5014 32.0045 24.4781C32.0879 24.4535 32.1727 24.4303 32.2588 24.4084C32.3491 24.3852 32.4392 24.3633 32.5295 24.3428C32.6143 24.3236 32.6977 24.3045 32.7825 24.2881C32.8508 24.273 32.9192 24.2594 32.9889 24.2471C33.0491 24.2361 33.1092 24.2252 33.1694 24.2156C33.202 24.2088 33.2362 24.2033 33.2704 24.1992C33.3321 24.1883 33.3936 24.1801 33.4551 24.1719C33.4715 24.1691 33.4866 24.1664 33.503 24.165C33.5549 24.1568 33.6082 24.15 33.6616 24.1432C33.719 24.1363 33.7764 24.1295 33.8338 24.124L33.9158 24.1158C33.9746 24.109 34.0348 24.1035 34.0936 24.0994C34.1249 24.0967 34.1565 24.0939 34.1878 24.0926C34.2274 24.0885 34.2686 24.0857 34.3082 24.0844C34.367 24.0803 34.427 24.0775 34.486 24.0748C34.5625 24.0707 34.6391 24.068 34.717 24.0666C34.81 24.0639 34.9056 24.0625 35 24.0625C41.0403 24.0625 45.9375 28.9598 45.9375 35C45.9375 36.8881 45.459 38.6641 44.6168 40.2131C44.5334 40.3662 44.4472 40.518 44.3571 40.6656C44.3104 40.7436 44.2627 40.8187 44.2134 40.8953C44.126 41.032 44.0358 41.166 43.9428 41.2986C43.9332 41.3123 43.9235 41.3246 43.9141 41.3383C43.7145 41.6199 43.5012 41.892 43.2741 42.1518C43.1032 42.35 42.9242 42.5428 42.7382 42.7287C42.5701 42.8969 42.3964 43.0609 42.2174 43.2168C41.4668 43.8771 40.626 44.4363 39.7141 44.8711C39.5637 44.9436 39.4118 45.0119 39.2573 45.0775C38.9307 45.2156 38.5944 45.3387 38.2526 45.4453C37.9094 45.552 37.5608 45.6422 37.2039 45.7146C36.4916 45.8609 35.7546 45.9375 35 45.9375C28.9598 45.9375 24.0625 41.0402 24.0625 35C24.0625 34.9057 24.0639 34.8113 24.0666 34.7184C24.068 34.6418 24.0706 34.5666 24.0748 34.49C24.0776 34.4189 24.0815 34.3479 24.0858 34.2781C24.0871 34.2576 24.0885 34.2371 24.0899 34.2166C24.0953 34.151 24.0993 34.0854 24.1063 34.0197C24.1076 34.0033 24.109 33.9883 24.1102 33.9719C24.1172 33.8939 24.1254 33.816 24.135 33.7395V33.7367C24.1444 33.6547 24.1541 33.5727 24.1664 33.4906C24.1746 33.4291 24.1828 33.3676 24.1938 33.3061C24.2047 33.224 24.2183 33.1447 24.2334 33.0641C24.236 33.0422 24.2403 33.0217 24.2444 32.9998" stroke="#F4F4ED" stroke-width="2" stroke-linecap="round" stroke-linejoin="round"/>
<path d="M35 39.1016C32.7387 39.1016 30.8984 37.2613 30.8984 35C30.8984 32.7387 32.7387 30.8984 35 30.8984C37.2613 30.8984 39.1016 32.7387 39.1016 35C39.1016 37.2613 37.2613 39.1016 35 39.1016Z" stroke="#F4F4ED" stroke-width="2" stroke-linecap="round" stroke-linejoin="round"/>
</g>
</svg>
