<svg width="48" height="48" viewBox="0 0 48 48" fill="none" xmlns="http://www.w3.org/2000/svg">
<path d="M22.5858 45.7618C23.3668 46.543 24.6332 46.543 25.4142 45.7618L30.789 40.387H38.3892C39.4938 40.387 40.3892 39.4916 40.3892 38.387V30.7868L45.7618 25.4142C46.543 24.6332 46.543 23.3668 45.7618 22.5858L40.3892 17.2131V9.61108C40.3892 8.50652 39.4938 7.61108 38.3892 7.61108H30.7872L25.4142 2.23814C24.6332 1.45708 23.3668 1.45708 22.5858 2.23814L17.2128 7.61108H9.61328C8.50872 7.61108 7.61328 8.50652 7.61328 9.61108V17.2106L2.23814 22.5858C1.45708 23.3668 1.45708 24.6332 2.23814 25.4142L7.61328 30.7894V38.387C7.61328 39.4916 8.50872 40.387 9.61328 40.387H17.2109L22.5858 45.7618Z" stroke="white" stroke-linecap="round" stroke-linejoin="round"/>
</svg>
