<svg width="48" height="48" viewBox="0 0 48 48" fill="none" xmlns="http://www.w3.org/2000/svg">
<g clip-path="url(#clip0_16_253)">
<path d="M1.97798 27.534C1.66718 27.3453 1.41263 27.0768 1.24085 26.7563C1.06906 26.4359 0.986315 26.0752 1.00122 25.7119C1.01613 25.3486 1.12815 24.996 1.32561 24.6907C1.52307 24.3854 1.79877 24.1386 2.12398 23.976L47 1L36.146 45.426C36.0668 45.7452 35.9123 46.0409 35.6956 46.2882C35.4788 46.5356 35.206 46.7275 34.9 46.848C34.5921 46.971 34.2598 47.0202 33.9295 46.9917C33.5992 46.9633 33.2802 46.8579 32.998 46.684L1.97798 27.534Z" stroke="white" stroke-linecap="round" stroke-linejoin="round"/>
<path d="M22.962 40.49L16.752 46.7C16.6085 46.8437 16.4256 46.9416 16.2264 46.9812C16.0273 47.0209 15.8208 47.0006 15.6332 46.9229C15.4456 46.8451 15.2853 46.7135 15.1726 46.5445C15.0599 46.3756 14.9998 46.1771 15 45.974V35.574L47 1" stroke="white" stroke-linecap="round" stroke-linejoin="round"/>
</g>
<defs>
<clipPath id="clip0_16_253">
<rect width="48" height="48" fill="white"/>
</clipPath>
</defs>
</svg>
