<svg width="14" height="14" viewBox="0 0 14 14" fill="none" xmlns="http://www.w3.org/2000/svg">
<g clip-path="url(#clip0_21_360)">
<path d="M13.5625 0.875V4.8125C13.5625 5.05433 13.3668 5.25 13.125 5.25C12.8832 5.25 12.6875 5.05433 12.6875 4.8125V1.93113L6.43431 8.18431C6.34889 8.26973 6.23689 8.3125 6.125 8.3125C6.01311 8.3125 5.90111 8.26973 5.81569 8.18431C5.64473 8.01336 5.64473 7.73653 5.81569 7.56569L12.0689 1.3125H9.1875C8.94567 1.3125 8.75 1.11683 8.75 0.875C8.75 0.633172 8.94567 0.4375 9.1875 0.4375H13.125C13.3668 0.4375 13.5625 0.633172 13.5625 0.875ZM11.8125 12.25V7C11.8125 6.75817 11.6168 6.5625 11.375 6.5625C11.1332 6.5625 10.9375 6.75817 10.9375 7V12.25C10.9375 12.4914 10.7414 12.6875 10.5 12.6875H1.75C1.50861 12.6875 1.3125 12.4914 1.3125 12.25V3.5C1.3125 3.25861 1.50861 3.0625 1.75 3.0625H7C7.24183 3.0625 7.4375 2.86683 7.4375 2.625C7.4375 2.38317 7.24183 2.1875 7 2.1875H1.75C1.02627 2.1875 0.4375 2.77627 0.4375 3.5V12.25C0.4375 12.9737 1.02627 13.5625 1.75 13.5625H10.5C11.2237 13.5625 11.8125 12.9737 11.8125 12.25Z" fill="white"/>
</g>
<defs>
<clipPath id="clip0_21_360">
<rect width="14" height="14" fill="white"/>
</clipPath>
</defs>
</svg>
