<svg width="60" height="60" viewBox="0 0 60 60" fill="none" xmlns="http://www.w3.org/2000/svg">
<g clip-path="url(#clip0_3_31)">
<path d="M34.7708 1.86051C33.7453 0.0843059 31.4662 -0.526472 29.6901 0.499147C28.8297 0.995903 28.2143 1.79793 27.9573 2.75757C27.7781 3.42612 27.7884 4.1153 27.9787 4.76287L22.63 10.7498C22.1987 11.2325 22.2404 11.9733 22.7231 12.4045C23.2058 12.8358 23.9467 12.7938 24.3777 12.3114L29.1385 6.98239L36.4342 19.619L43.7299 32.2556L18.5965 37.4957L13.3493 28.4076L12.0336 26.1287L17.3519 20.1759C17.7831 19.6932 17.7414 18.9524 17.2587 18.5212C16.776 18.09 16.0352 18.1319 15.6041 18.6144L9.84605 25.0593L4.29502 28.2642C2.30964 29.4104 0.889454 31.2613 0.296137 33.4757C-0.297181 35.69 0.00727087 38.0029 1.15348 39.9883C2.29968 41.9737 4.15053 43.3939 6.36489 43.9872C7.10446 44.1852 7.85469 44.2833 8.60023 44.2833C9.85566 44.2833 11.0969 44.0043 12.2488 43.4583L13.7304 46.0245C14.3355 47.0724 15.4369 47.6589 16.5679 47.6589C17.1136 47.6589 17.6659 47.5217 18.1729 47.2346L24.8816 58.8543C25.3055 59.5886 26.0771 59.9995 26.8697 59.9995C27.258 59.9995 27.6517 59.9007 28.0114 59.6929L32.5019 57.1003C33.1921 56.7019 33.6199 55.9884 33.6464 55.1919C33.6727 54.3954 33.293 53.6552 32.6307 53.2119L31.3012 52.3221L25.8162 42.8218C27.3592 41.9136 27.8861 39.9227 26.9893 38.3693L26.8711 38.1644L45.075 34.3691C45.7852 35.1109 46.7651 35.5169 47.7669 35.5169C48.3974 35.5169 49.036 35.3566 49.6202 35.0194C51.3962 33.994 52.0068 31.7148 50.9816 29.9387L34.7708 1.86051ZM6.97157 41.7233C5.36189 41.2919 4.01647 40.2596 3.18327 38.8164C2.35007 37.3733 2.12871 35.6919 2.56007 34.0823C2.99143 32.4728 4.02373 31.1273 5.46701 30.294L10.166 27.581L13.2855 32.9841L16.405 38.3871L11.7058 41.0999C10.2624 41.9333 8.58113 42.1546 6.97157 41.7233ZM29.7712 54.1184L31.2571 55.1128L26.8853 57.637L20.2033 46.0635L23.7871 43.9945L29.4082 53.7305C29.4978 53.8857 29.6219 54.0185 29.7712 54.1184ZM24.9598 39.5412C25.2152 39.9836 25.0631 40.5513 24.6207 40.8066L23.6303 41.3785C23.6302 41.3786 23.63 41.3786 23.6299 41.3787C23.6298 41.3789 23.6297 41.3789 23.6296 41.379L18.017 44.6194C18.0168 44.6195 18.0166 44.6197 18.0163 44.6198C18.0161 44.6199 18.016 44.62 18.0157 44.6201L17.0256 45.1918C16.5834 45.4472 16.0157 45.2951 15.7601 44.8526L14.2934 42.3122L18.4285 39.9248L24.4555 38.6682L24.9598 39.5412ZM48.4486 32.9898C48.1303 33.1735 47.7593 33.2223 47.4048 33.1271C47.05 33.032 46.7531 32.8044 46.5695 32.4862L30.3584 4.40803C30.1748 4.08987 30.1259 3.71909 30.221 3.36425C30.316 3.00941 30.5437 2.71269 30.8619 2.52906C31.078 2.40437 31.3141 2.34508 31.5474 2.34508C32.0232 2.34508 32.4866 2.59175 32.7411 3.03261L48.9521 31.1108C49.3312 31.7675 49.1054 32.6106 48.4486 32.9898Z" fill="#F4F4ED"/>
<path d="M46.6027 13.7479C46.8199 14.1238 47.2136 14.3339 47.6187 14.3339C47.8175 14.3339 48.0191 14.2833 48.2035 14.1768L55.7746 9.80558C56.3352 9.48202 56.5272 8.7653 56.2035 8.2048C55.88 7.64429 55.1633 7.45222 54.6028 7.77589L47.0316 12.1471C46.4711 12.4707 46.2791 13.1874 46.6027 13.7479Z" fill="#F4F4ED"/>
<path d="M44.2366 9.82356C44.4212 9.93009 44.6226 9.98071 44.8214 9.98071C45.2264 9.98071 45.6203 9.77059 45.8374 9.39466L49.4446 3.14669C49.7683 2.58618 49.5762 1.86946 49.0157 1.54591C48.4551 1.22224 47.7385 1.41431 47.415 1.97481L43.8077 8.22278C43.484 8.78317 43.6761 9.50001 44.2366 9.82356Z" fill="#F4F4ED"/>
<path d="M56.4499 16.5869H50.7446C50.0975 16.5869 49.5728 17.1116 49.5728 17.7588C49.5728 18.406 50.0975 18.9307 50.7446 18.9307H56.4499C57.097 18.9307 57.6218 18.406 57.6218 17.7588C57.6218 17.1116 57.097 16.5869 56.4499 16.5869Z" fill="#F4F4ED"/>
<path d="M59.6579 5.86045C59.4387 5.64248 59.1377 5.51709 58.8295 5.51709C58.52 5.51709 58.2188 5.64248 57.9998 5.86045C57.7818 6.07842 57.6563 6.38076 57.6563 6.68897C57.6563 6.99717 57.7817 7.29951 57.9998 7.51748C58.2188 7.73545 58.52 7.86084 58.8295 7.86084C59.1377 7.86084 59.4387 7.73545 59.6579 7.51748C59.8758 7.29951 60.0001 6.99717 60.0001 6.68897C60.0001 6.38076 59.8758 6.07842 59.6579 5.86045Z" fill="#F4F4ED"/>
<path d="M19.9913 16.6336C20.2996 16.6336 20.6006 16.5094 20.8198 16.2914C21.0378 16.0734 21.162 15.7711 21.162 15.4629C21.162 15.1535 21.0378 14.8523 20.8198 14.6332C20.6019 14.4152 20.2996 14.291 19.9913 14.291C19.6819 14.291 19.3807 14.4152 19.1629 14.6332C18.9437 14.8523 18.8194 15.1535 18.8194 15.4629C18.8194 15.7711 18.9437 16.0734 19.1629 16.2914C19.3807 16.5094 19.6831 16.6336 19.9913 16.6336Z" fill="#F4F4ED"/>
</g>
<defs>
<clipPath id="clip0_3_31">
<rect width="60" height="60" fill="white"/>
</clipPath>
</defs>
</svg>
