<svg width="48" height="48" viewBox="0 0 48 48" fill="none" xmlns="http://www.w3.org/2000/svg">
<path d="M15 24C15 30.1 15.9482 35.9501 17.636 40.2635C19.3239 44.5768 21.6131 47 24 47C26.3869 47 28.6761 44.5768 30.364 40.2635C32.0518 35.9501 33 30.1 33 24C33 17.9 32.0518 12.0499 30.364 7.73654C28.6761 3.42321 26.3869 1 24 1C21.6131 1 19.3239 3.42321 17.636 7.73654C15.9482 12.0499 15 17.9 15 24Z" stroke="white" stroke-linecap="round" stroke-linejoin="round"/>
<path d="M29.1 31.416C18.634 38.616 7.86801 41.13 5.04801 37.034C2.22801 32.938 8.43402 23.784 18.9 16.584C29.366 9.38405 40.132 6.87205 42.952 10.966C45.772 15.06 39.566 24.216 29.1 31.416Z" stroke="white" stroke-linecap="round" stroke-linejoin="round"/>
<path d="M18.9 31.416C29.366 38.616 40.132 41.13 42.952 37.034C45.772 32.938 39.566 23.784 29.1 16.584C18.634 9.38405 7.86801 6.87205 5.04801 10.966C2.22801 15.06 8.43402 24.216 18.9 31.416Z" stroke="white" stroke-linecap="round" stroke-linejoin="round"/>
<path d="M20 24C20 25.0609 20.4214 26.0783 21.1716 26.8284C21.9217 27.5786 22.9391 28 24 28C25.0609 28 26.0783 27.5786 26.8284 26.8284C27.5786 26.0783 28 25.0609 28 24C28 22.9391 27.5786 21.9217 26.8284 21.1716C26.0783 20.4214 25.0609 20 24 20C22.9391 20 21.9217 20.4214 21.1716 21.1716C20.4214 21.9217 20 22.9391 20 24Z" stroke="white" stroke-linecap="round" stroke-linejoin="round"/>
</svg>
