<svg width="48" height="48" viewBox="0 0 48 48" fill="none" xmlns="http://www.w3.org/2000/svg">
<g clip-path="url(#clip0_16_218)">
<path d="M3 1H45C45 1 47 1 47 3V45C47 45 47 47 45 47H3C3 47 1 47 1 45V3C1 3 1 1 3 1Z" stroke="white" stroke-linecap="round" stroke-linejoin="round"/>
<path d="M1 21L5.298 17.032C7.82259 14.7021 11.0237 13.2369 14.4371 12.8488C17.8506 12.4608 21.2989 13.1702 24.282 14.874C27.3601 16.6335 30.9314 17.3322 34.4456 16.8624C37.9599 16.3926 41.2222 14.7803 43.73 12.274L47 9" stroke="white" stroke-linecap="round" stroke-linejoin="round"/>
<path d="M1 37L5.298 33.032C7.82259 30.7021 11.0237 29.2369 14.4371 28.8488C17.8506 28.4608 21.2989 29.1702 24.282 30.874C27.3601 32.6335 30.9314 33.3322 34.4456 32.8624C37.9599 32.3926 41.2222 30.7803 43.73 28.274L47 25" stroke="white" stroke-linecap="round" stroke-linejoin="round"/>
<path d="M7.252 1C10.34 3.98119 12.7949 7.55466 14.4699 11.5066C16.1448 15.4586 17.0053 19.7078 17 24C17.0055 28.2926 16.1447 32.5422 14.469 36.4943C12.7933 40.4463 10.3373 44.0196 7.248 47" stroke="white" stroke-linecap="round" stroke-linejoin="round"/>
<path d="M25.252 1C28.3367 3.98391 30.7896 7.55783 32.4649 11.5091C34.1401 15.4604 35.0034 19.7083 35.0034 24C35.0034 28.2917 34.1401 32.5396 32.4649 36.4909C30.7896 40.4422 28.3367 44.0161 25.252 47" stroke="white" stroke-linecap="round" stroke-linejoin="round"/>
</g>
<defs>
<clipPath id="clip0_16_218">
<rect width="48" height="48" fill="white"/>
</clipPath>
</defs>
</svg>
