<svg width="48" height="48" viewBox="0 0 48 48" fill="none" xmlns="http://www.w3.org/2000/svg">
<path d="M20 6C20 7.06087 20.4214 8.07828 21.1716 8.82843C21.9217 9.57857 22.9391 10 24 10C25.0609 10 26.0783 9.57857 26.8284 8.82843C27.5786 8.07828 28 7.06087 28 6C28 4.93913 27.5786 3.92172 26.8284 3.17157C26.0783 2.42143 25.0609 2 24 2C22.9391 2 21.9217 2.42143 21.1716 3.17157C20.4214 3.92172 20 4.93913 20 6Z" stroke="white" stroke-linecap="round" stroke-linejoin="round"/>
<path d="M20 42C20 43.0609 20.4214 44.0783 21.1716 44.8284C21.9217 45.5786 22.9391 46 24 46C25.0609 46 26.0783 45.5786 26.8284 44.8284C27.5786 44.0783 28 43.0609 28 42C28 40.9391 27.5786 39.9217 26.8284 39.1716C26.0783 38.4214 25.0609 38 24 38C22.9391 38 21.9217 38.4214 21.1716 39.1716C20.4214 39.9217 20 40.9391 20 42Z" stroke="white" stroke-linecap="round" stroke-linejoin="round"/>
<path d="M38 24C38 25.0609 38.4214 26.0783 39.1716 26.8284C39.9217 27.5786 40.9391 28 42 28C43.0609 28 44.0783 27.5786 44.8284 26.8284C45.5786 26.0783 46 25.0609 46 24C46 22.9391 45.5786 21.9217 44.8284 21.1716C44.0783 20.4214 43.0609 20 42 20C40.9391 20 39.9217 20.4214 39.1716 21.1716C38.4214 21.9217 38 22.9391 38 24Z" stroke="white" stroke-linecap="round" stroke-linejoin="round"/>
<path d="M2 24C2 25.0609 2.42143 26.0783 3.17157 26.8284C3.92172 27.5786 4.93913 28 6 28C7.06087 28 8.07828 27.5786 8.82843 26.8284C9.57857 26.0783 10 25.0609 10 24C10 22.9391 9.57857 21.9217 8.82843 21.1716C8.07828 20.4214 7.06087 20 6 20C4.93913 20 3.92172 20.4214 3.17157 21.1716C2.42143 21.9217 2 22.9391 2 24Z" stroke="white" stroke-linecap="round" stroke-linejoin="round"/>
<path d="M24 10V38" stroke="white" stroke-linecap="round" stroke-linejoin="round"/>
<path d="M10 24H38" stroke="white" stroke-linecap="round" stroke-linejoin="round"/>
<path d="M32.72 36.72C32.72 37.7808 33.1414 38.7983 33.8916 39.5484C34.6417 40.2985 35.6591 40.72 36.72 40.72C37.7809 40.72 38.7983 40.2985 39.5484 39.5484C40.2986 38.7983 40.72 37.7808 40.72 36.72C40.72 35.6591 40.2986 34.6417 39.5484 33.8915C38.7983 33.1414 37.7809 32.72 36.72 32.72C35.6591 32.72 34.6417 33.1414 33.8916 33.8915C33.1414 34.6417 32.72 35.6591 32.72 36.72Z" stroke="white" stroke-linecap="round" stroke-linejoin="round"/>
<path d="M7.28 11.28C7.28 12.3409 7.70143 13.3583 8.45157 14.1085C9.20172 14.8586 10.2191 15.28 11.28 15.28C12.3409 15.28 13.3583 14.8586 14.1084 14.1085C14.8586 13.3583 15.28 12.3409 15.28 11.28C15.28 10.2192 14.8586 9.20175 14.1084 8.4516C13.3583 7.70146 12.3409 7.28003 11.28 7.28003C10.2191 7.28003 9.20172 7.70146 8.45157 8.4516C7.70143 9.20175 7.28 10.2192 7.28 11.28Z" stroke="white" stroke-linecap="round" stroke-linejoin="round"/>
<path d="M14.1 14.1L20 20" stroke="white" stroke-linecap="round" stroke-linejoin="round"/>
<path d="M28 28L33.9 33.9" stroke="white" stroke-linecap="round" stroke-linejoin="round"/>
<path d="M32.72 11.28C32.72 12.3409 33.1414 13.3583 33.8916 14.1085C34.6417 14.8586 35.6591 15.28 36.72 15.28C37.7809 15.28 38.7983 14.8586 39.5484 14.1085C40.2986 13.3583 40.72 12.3409 40.72 11.28C40.72 10.2192 40.2986 9.20175 39.5484 8.4516C38.7983 7.70146 37.7809 7.28003 36.72 7.28003C35.6591 7.28003 34.6417 7.70146 33.8916 8.4516C33.1414 9.20175 32.72 10.2192 32.72 11.28Z" stroke="white" stroke-linecap="round" stroke-linejoin="round"/>
<path d="M7.28 36.72C7.28 37.7808 7.70143 38.7983 8.45157 39.5484C9.20172 40.2985 10.2191 40.72 11.28 40.72C12.3409 40.72 13.3583 40.2985 14.1084 39.5484C14.8586 38.7983 15.28 37.7808 15.28 36.72C15.28 35.6591 14.8586 34.6417 14.1084 33.8915C13.3583 33.1414 12.3409 32.72 11.28 32.72C10.2191 32.72 9.20172 33.1414 8.45157 33.8915C7.70143 34.6417 7.28 35.6591 7.28 36.72Z" stroke="white" stroke-linecap="round" stroke-linejoin="round"/>
<path d="M28 20L33.9 14.1" stroke="white" stroke-linecap="round" stroke-linejoin="round"/>
<path d="M14.1 33.9L20 28" stroke="white" stroke-linecap="round" stroke-linejoin="round"/>
</svg>
