<svg width="48" height="48" viewBox="0 0 48 48" fill="none" xmlns="http://www.w3.org/2000/svg">
<path d="M24.352 24.8602C24.091 24.9782 23.7918 24.9782 23.5308 24.8602L2.0832 15.5344C1.7012 15.3696 1.455 14.9924 1.4576 14.5764C1.4648 14.1634 1.708 13.791 2.0832 13.6184L23.5894 4.31198C23.8504 4.19418 24.1496 4.19418 24.4106 4.31198L45.9168 13.6184C46.292 13.791 46.5352 14.1634 46.5424 14.5764C46.545 14.9924 46.2988 15.3696 45.9168 15.5344L24.352 24.8602Z" stroke="white" stroke-linecap="round" stroke-linejoin="round"/>
<path d="M45.7994 21.8102L24.2932 31.1362C24.0322 31.254 23.7332 31.254 23.4722 31.1362L1.966 21.8102" stroke="white" stroke-linecap="round" stroke-linejoin="round"/>
<path d="M45.7994 28.1058L24.2932 37.412C24.0322 37.53 23.7332 37.53 23.4722 37.412L2.08319 28.1058" stroke="white" stroke-linecap="round" stroke-linejoin="round"/>
<path d="M45.7994 34.3816L24.2932 43.688C24.0322 43.8058 23.7332 43.8058 23.4722 43.688L1.966 34.3816" stroke="white" stroke-linecap="round" stroke-linejoin="round"/>
</svg>
